<svg width="36" height="36" viewBox="0 0 36 36" fill="none" xmlns="http://www.w3.org/2000/svg">
<path d="M17.0999 21.8569C19.8745 21.8569 22.0975 19.6172 22.0975 16.8427L22.1142 6.81409C22.1142 4.03952 19.8745 1.7998 17.0999 1.7998C14.3253 1.7998 12.0856 4.03952 12.0856 6.81409V16.8427C12.0856 19.6172 14.3253 21.8569 17.0999 21.8569ZM25.9585 16.8427C25.9585 21.8569 21.713 25.3669 17.0999 25.3669C12.4868 25.3669 8.24133 21.8569 8.24133 16.8427H5.3999C5.3999 22.5589 9.94619 27.2557 15.4285 28.0747V33.5569H18.7713V28.0747C24.2536 27.2724 28.7999 22.5589 28.7999 16.8427H25.9585Z" fill="#2461D7"/>
</svg>
